<svg xmlns="http://www.w3.org/2000/svg" id="Layer_1" data-name="Layer 1" viewBox="0 0 1000 56">
  <defs>
    <style>
      .cls-1 {
        fill: #fff;
      }
    </style>
  </defs>
  <g>
    <path class="cls-1" d="M49.46312,39.73226A14.084,14.084,0,0,1,44.67339,50.8981c-3.2023,2.80174-7.65582,4.18719-13.37665,4.18719H0V.9097H26.18269a35.54865,35.54865,0,0,1,8.86615.97857A17.52246,17.52246,0,0,1,41.10561,4.5637a11.16831,11.16831,0,0,1,3.43778,4.00683,11.28623,11.28623,0,0,1,1.1368,5.04472,12.75743,12.75743,0,0,1-1.1666,5.48773,13.01246,13.01246,0,0,1-2.89164,4.1537A10.74,10.74,0,0,1,38.148,25.53552a21.16538,21.16538,0,0,1,8.4142,5.54178,12.63,12.63,0,0,1,2.90089,8.655M30.46771,16.51746c0-2.60081-.85887-4.33143-2.59187-5.19133q-2.592-1.28631-8.08221-1.29289H16.334V22.9914h3.53956c3.74814,0,6.44441-.44036,8.11043-1.2979,1.63648-.85489,2.48375-2.5776,2.48375-5.176m2.64588,22.53236q0-6.92551-10.115-6.93462H16.334V45.94857h6.6646c6.75189,0,10.115-2.27884,10.115-6.89875"/>
    <rect class="cls-1" x="69.7372" y="0.90838" width="16.33793" height="54.16926"/>
    <path class="cls-1" d="M160.39849,51.26384c-1.19216.43773-2.18892.81877-3.02694,1.10725-.84592.29877-1.6378.55613-2.40277.775-.775.23969-1.90545.54848-3.327.89365a66.37107,66.37107,0,0,1-7.41507,1.334,67.24254,67.24254,0,0,1-7.813.453A37.98122,37.98122,0,0,1,121.182,52.80619a24.96183,24.96183,0,0,1-11.2046-9.35533c-2.8094-4.218-4.20249-9.42256-4.20249-15.57691a33.19149,33.19149,0,0,1,2.15649-11.67582,20.61838,20.61838,0,0,1,6.62846-9.17891,30.51932,30.51932,0,0,1,7.45251-4.33407A32.03819,32.03819,0,0,1,129.372.68055,58.24433,58.24433,0,0,1,137.31766.1769a53.42394,53.42394,0,0,1,11.79791,1.07639c3.10447.71224,6.5164,1.63649,10.20653,2.816V16.84972a45.35354,45.35354,0,0,0-7.78318-3.59758A31.43667,31.43667,0,0,0,141.3,11.81027q-7.07622,0-11.32142,2.66779a14.78819,14.78819,0,0,0-5.90094,6.412,17.55213,17.55213,0,0,0-1.665,7.18723,15.30764,15.30764,0,0,0,1.912,7.58119,14.01944,14.01944,0,0,0,5.78386,5.55708,19.50551,19.50551,0,0,0,9.34767,2.08846,30.06549,30.06549,0,0,0,6.658-.8164v-6.394h-7.35969V25.21381h21.644Z"/>
    <polygon class="cls-1" points="273.277 55.085 253.34 55.085 232.608 29.777 232.608 55.085 216.253 55.085 216.253 0.908 232.608 0.908 232.608 25.209 252.22 0.908 269.991 0.908 249.807 26.272 273.277 55.085"/>
    <path class="cls-1" d="M349.59866,55.08529H332.85517L328.44648,44.0534H304.90734l-4.48856,11.03189H283.68053L307.62655.9097h18.0699ZM324.68937,34.63348l-7.95458-19.73325-8.01128,19.73325Z"/>
    <polygon class="cls-1" points="423.564 55.085 407.23 55.085 407.23 33.876 382.645 33.876 382.645 55.085 366.327 55.085 366.327 0.908 382.645 0.908 382.645 20.787 407.23 20.787 407.23 0.908 423.564 0.908 423.564 55.085"/>
    <path class="cls-1" d="M503.29037,30.82759a24.97929,24.97929,0,0,1-2.59053,11.86094,20.74943,20.74943,0,0,1-6.90135,7.77184,29.46627,29.46627,0,0,1-9.20874,4.10993,40.04681,40.04681,0,0,1-9.88588,1.2565,39.42738,39.42738,0,0,1-13.40618-2.35347,23.7314,23.7314,0,0,1-10.88-7.99071c-2.93807-3.75209-4.38285-8.62146-4.38285-14.655V.91339h16.33664V26.643a22.1605,22.1605,0,0,0,1.54525,8.87118,10.63792,10.63792,0,0,0,4.30555,5.13491,13.62454,13.62454,0,0,0,12.8577.02558,10.56108,10.56108,0,0,0,4.32616-5.09852,21.73608,21.73608,0,0,0,1.54762-8.84824V.91339h16.33661Z"/>
    <polygon class="cls-1" points="584.557 55.085 569.956 55.085 541.861 24.905 541.861 55.085 525.671 55.085 525.671 0.908 540.174 0.908 568.212 30.946 568.212 0.908 584.557 0.908 584.557 55.085"/>
    <path class="cls-1" d="M666.18555,55.08529H649.442L645.04361,44.0534H621.50184l-4.491,11.03189H600.26215L624.23661.9097h18.06723ZM641.26594,34.63348l-7.9287-19.73325-8.01131,19.73325Z"/>
    <polygon class="cls-1" points="755.112 33.148 732.634 33.148 732.634 55.085 716.298 55.085 716.298 0.908 755.112 0.908 755.112 11.805 732.634 11.805 732.634 22.255 755.112 22.255 755.112 33.148"/>
    <rect class="cls-1" x="775.87836" y="0.90838" width="16.33428" height="54.16926"/>
    <polygon class="cls-1" points="856.599 55.085 815.435 55.085 815.435 0.908 831.746 0.908 831.746 42.122 856.599 42.122 856.599 55.085"/>
    <polygon class="cls-1" points="938.709 55.085 922.383 55.085 922.383 23.723 907.648 41.831 906.358 41.831 891.615 23.723 891.615 55.085 875.719 55.085 875.719 0.908 890.547 0.908 907.172 21.217 923.902 0.908 938.709 0.908 938.709 55.085"/>
    <path class="cls-1" d="M1000,39.41556a14.71792,14.71792,0,0,1-2.59053,8.76069,16.47943,16.47943,0,0,1-7.25684,5.68577,27.11558,27.11558,0,0,1-10.66615,1.96478c-1.12518,0-2.50561-.09256-4.12016-.2136a44.59523,44.59523,0,0,1-6.48665-1.19479,51.5623,51.5623,0,0,1-8.43635-2.86872V38.28247a58.11514,58.11514,0,0,0,8.068,4.22332,21.51431,21.51431,0,0,0,8.51071,1.67366c2.77353,0,4.6044-.4583,5.41574-1.37253a4.10212,4.10212,0,0,0,1.22565-2.61874,4.41379,4.41379,0,0,0-2.11667-3.69013,29.62541,29.62541,0,0,0-6.14169-3.10578,48.6819,48.6819,0,0,1-7.82089-4.10729,18.55572,18.55572,0,0,1-5.4901-5.53124,14.372,14.372,0,0,1-2.13486-7.87231,14.97971,14.97971,0,0,1,2.15543-7.92874A15.12331,15.12331,0,0,1,968.689,2.28855,25.1079,25.1079,0,0,1,979.48648.1732a38.43094,38.43094,0,0,1,14.74021,2.86345A27.45863,27.45863,0,0,1,997.6748,4.762V17.491a45.76958,45.76958,0,0,0-7.42434-4.24652A20.61406,20.61406,0,0,0,981.5106,11.362a6.81772,6.81772,0,0,0-4.42927,1.1795,3.67054,3.67054,0,0,0-1.36988,2.879,3.57489,3.57489,0,0,0,1.36988,2.78882,24.85309,24.85309,0,0,0,4.916,2.8558,97.77306,97.77306,0,0,1,9.99927,5.28679,19.80163,19.80163,0,0,1,5.897,5.41812A13.11743,13.11743,0,0,1,1000,39.41556"/>
  </g>
</svg>